name ./resultDataOpenSim/trcMotMarkerGrf/sub09/grf-05-04.mot
datacolumns 19
datarows 15
range 1.27200000 1.32800000
endheader

                time	     ground_force_vx	     ground_force_vy	     ground_force_vz	     ground_force_px	     ground_force_py	     ground_force_pz	   l_ground_force_vx	   l_ground_force_vy	   l_ground_force_vz	   l_ground_force_px	   l_ground_force_py	   l_ground_force_pz	     ground_torque_x	     ground_torque_y	     ground_torque_z	   l_ground_torque_x	   l_ground_torque_y	   l_ground_torque_z	
          1.27200000	       -190.84064102	        669.98985795	        -38.49433106	          0.84789524	          0.00000000	          0.10493152	         66.35537753	        116.94853884	         -1.95226821	          0.12156651	         -0.10000000	          0.04738259	          0.00000000	          1.84735443	          0.00000000	          0.00000000	         -0.52104841	          0.00000000	
          1.27600000	       -199.70634176	        714.97829526	        -36.95655371	          0.85168794	          0.00000000	          0.10536541	         55.69119868	         90.58004284	         -0.71347774	          0.12407558	         -0.10000000	          0.04804067	          0.00000000	          1.60870767	          0.00000000	          0.00000000	         -0.37718297	          0.00000000	
          1.28000000	       -213.28200156	        756.29169758	        -31.46297630	          0.85581655	          0.00000000	          0.10541091	         45.65195426	         68.42389041	          0.49234610	          0.12651078	         -0.10000000	          0.04890717	          0.00000000	          1.43639335	          0.00000000	          0.00000000	         -0.25654139	          0.00000000	
          1.28400000	       -231.34380158	        793.33132917	        -23.11764739	          0.85989274	          0.00000000	          0.10534776	         36.39798641	         49.92081785	          1.68629659	          0.12915839	         -0.10000000	          0.05015249	          0.00000000	          1.40572344	          0.00000000	          0.00000000	         -0.15421383	          0.00000000	
          1.28800000	       -252.70849456	        826.28441260	        -13.27963063	          0.86391492	          0.00000000	          0.10527323	         28.04315286	         34.37736053	          2.81846924	          0.13273024	         -0.10000000	          0.05218961	          0.00000000	          1.52693455	          0.00000000	          0.00000000	         -0.06548413	          0.00000000	
          1.29200000	       -274.80499136	        855.75575335	         -3.35495941	          0.86788211	          0.00000000	          0.10507278	         20.60777333	         21.07821248	          3.82980542	          0.13859657	         -0.10000000	          0.05591196	          0.00000000	          1.74715042	          0.00000000	          0.00000000	          0.01337283	          0.00000000	
          1.29600000	       -293.86855400	        881.78200882	          5.27543449	          0.87139881	          0.00000000	          0.10472703	         13.99395377	          9.39867637	          4.71943015	          0.14959070	         -0.10000000	          0.06334631	          0.00000000	          1.97451106	          0.00000000	          0.00000000	          0.08486981	          0.00000000	
          1.30000000	       -306.25375657	        903.54873758	         11.41903460	          0.87401811	          0.00000000	          0.10444543	          0.00000000	          0.00000000	          0.00000000	          0.00000000	          0.00000000	          0.00000000	          0.00000000	          2.11286090	          0.00000000	          0.00000000	          0.00000000	          0.00000000	
          1.30400000	       -309.77323774	        920.41655990	         14.26407552	          0.87557361	          0.00000000	          0.10441984	          0.00000000	          0.00000000	          0.00000000	          0.00000000	          0.00000000	          0.00000000	          0.00000000	          2.09326836	          0.00000000	          0.00000000	          0.00000000	          0.00000000	
          1.30800000	       -304.13774910	        932.87302118	         13.45936583	          0.87623899	          0.00000000	          0.10458584	          0.00000000	          0.00000000	          0.00000000	          0.00000000	          0.00000000	          0.00000000	          0.00000000	          1.89358868	          0.00000000	          0.00000000	          0.00000000	          0.00000000	
          1.31200000	       -290.78927903	        942.04726743	          9.17350592	          0.87618649	          0.00000000	          0.10480344	          0.00000000	          0.00000000	          0.00000000	          0.00000000	          0.00000000	          0.00000000	          0.00000000	          1.54360027	          0.00000000	          0.00000000	          0.00000000	          0.00000000	
          1.31600000	       -272.57056649	        948.53004693	          2.13570183	          0.87563364	          0.00000000	          0.10503977	          0.00000000	          0.00000000	          0.00000000	          0.00000000	          0.00000000	          0.00000000	          0.00000000	          1.11645526	          0.00000000	          0.00000000	          0.00000000	          0.00000000	
          1.32000000	       -253.11062728	        952.10588675	         -6.47390221	          0.87486773	          0.00000000	          0.10535227	          0.00000000	          0.00000000	          0.00000000	          0.00000000	          0.00000000	          0.00000000	          0.00000000	          0.70859414	          0.00000000	          0.00000000	          0.00000000	          0.00000000	
          1.32400000	       -235.89015932	        952.52793742	        -15.25104421	          0.87416134	          0.00000000	          0.10573460	          0.00000000	          0.00000000	          0.00000000	          0.00000000	          0.00000000	          0.00000000	          0.00000000	          0.41262237	          0.00000000	          0.00000000	          0.00000000	          0.00000000	
          1.32800000	       -223.37973936	        950.12713716	        -22.81127044	          0.87370582	          0.00000000	          0.10608677	          0.00000000	          0.00000000	          0.00000000	          0.00000000	          0.00000000	          0.00000000	          0.00000000	          0.29039935	          0.00000000	          0.00000000	          0.00000000	          0.00000000	
